<svg width="1024" height="1024" viewBox="0 0 1024 1024" fill="none" xmlns="http://www.w3.org/2000/svg">
<g clip-path="url(#clip0_242_3)">
<circle cx="512" cy="512" r="507" transform="matrix(1 0 0 -1 3.05176e-05 1024)" fill="white" stroke="black" stroke-width="10"/>
<circle cx="464.372" cy="464.372" r="464.372" transform="matrix(1 0 0 -1 47.6279 976.372)" fill="black"/>
<rect x="194" y="288" width="269" height="80" rx="36" fill="#D9D9D9"/>
<path d="M463 467C463 489.092 445.091 507 423 507H329.05C298.647 507 274 531.647 274 562.05V696C274 718.092 256.091 736 234 736C211.909 736 194 718.092 194 696V482.05C194 451.647 218.647 427 249.05 427H423C445.091 427 463 444.909 463 467Z" fill="#D9D9D9"/>
<path d="M784.632 288C809.687 288 829.999 308.312 829.999 333.367C829.999 358.423 809.687 378.734 784.632 378.734H735.499C683.308 378.734 640.999 421.043 640.999 473.234V550.766C640.999 602.957 683.308 645.266 735.499 645.266H784.632C809.687 645.266 829.999 665.577 829.999 690.633C829.999 715.688 809.687 736 784.632 736H695.499C621.217 736 560.999 675.782 560.999 601.5V422.5C560.999 348.218 621.217 288 695.499 288H784.632Z" fill="#D9D9D9"/>
</g>
<defs>
<clipPath id="clip0_242_3">
<rect width="1024" height="1024" fill="white"/>
</clipPath>
</defs>
</svg>
