<svg width="1024" height="1024" viewBox="0 0 1024 1024" fill="none" xmlns="http://www.w3.org/2000/svg">
<circle cx="430" cy="430" r="425" transform="matrix(1 0 0 -1 82 942)" stroke="black" stroke-width="10"/>
<circle cx="390" cy="390" r="390" transform="matrix(1 0 0 -1 122 902)" fill="black"/>
<rect x="252" y="362" width="220" height="40.2685" rx="17" fill="#D9D9D9"/>
<path d="M292.367 641.816C292.367 652.964 283.331 662 272.184 662C261.037 662 252 652.963 252 641.816V521C252 496.147 272.147 476 297 476H454.857C464.325 476 472 483.675 472 493.143C472 502.611 464.325 510.286 454.857 510.286H337.367C312.514 510.286 292.367 530.433 292.367 555.286V641.816Z" fill="#D9D9D9"/>
<path d="M750.798 362C762.508 362 772 371.492 772 383.202C772 394.911 762.508 404.403 750.798 404.403H682C632.294 404.403 592 444.698 592 494.403V529.598C592 579.303 632.294 619.598 682 619.598H750.799C762.508 619.598 772 629.09 772 640.799C772 652.508 762.508 662 750.799 662H662C601.249 662 552 612.751 552 552V472C552 411.249 601.249 362 662 362H750.798Z" fill="#D9D9D9"/>
</svg>
