<svg width="1024" height="1024" viewBox="0 0 1024 1024" fill="none" xmlns="http://www.w3.org/2000/svg">
<rect width="1024" height="1024" rx="223.936" fill="#010201"/>
<path d="M689.612 462.978C717.091 485.215 719.59 520.287 706.724 544.456C693.482 569.331 672.4 583.316 644.017 583.526C578.875 584.011 513.728 583.679 448.582 583.676C431.578 583.675 414.573 583.668 397.569 583.67C397.11 583.67 396.651 583.743 395.813 583.813C395.813 585.052 395.814 586.213 395.813 587.374C395.769 649.645 395.357 711.919 395.823 774.186C396.089 809.83 370.733 840.136 337.565 849.078C294.278 860.749 250.291 836.064 238.168 793.21C236.373 786.865 235.756 779.998 235.737 773.37C235.535 703.555 235.554 633.739 235.534 563.924C235.517 506.563 235.514 449.202 235.534 391.841C235.547 358.623 243.777 327.448 258.261 297.644C270.631 272.192 287.586 250.322 308.531 231.58C340.014 203.408 376.537 185.073 418.181 177.294C437.721 173.644 457.503 174.096 477.252 174.1C555.211 174.116 633.169 174.157 711.128 174.121C726.424 174.114 740.954 177.268 753.888 185.447C778.359 200.921 790.392 222.918 788.328 252.391C786.117 283.951 759.594 310.85 729.2 316.346C722.665 317.527 715.899 317.846 709.24 317.852C634.035 317.917 558.831 317.96 483.627 317.712C467.968 317.661 453.008 320.017 439.568 328.115C414.374 343.297 398.909 365.418 396.6 395.026C395.256 412.26 396.356 429.685 396.356 447.364C399.236 447.364 402.762 447.363 406.289 447.365C470.236 447.398 534.184 447.417 598.131 447.476C614.895 447.492 631.661 447.5 648.422 447.756C663.788 447.991 677.342 453.456 689.612 462.978Z" fill="#FEFEFE"/>
</svg>
