<svg width="216" height="56" viewBox="0 0 216 56" fill="none" xmlns="http://www.w3.org/2000/svg">
<path d="M79.708 20.328H85.896L89.952 34.056H83.764L79.708 20.328ZM103.264 16.168V41.804C103.264 45.132 100.352 47.836 96.868 47.888C93.956 47.94 90.732 47.888 87.196 47.212L85.792 41.648C88.704 42.272 91.512 42.584 94.112 42.428C95.88 42.324 96.92 41.44 96.92 39.776V16.168H78.304L77.784 10.76H96.92V1.4H103.264V10.76H109.764V16.168H103.264ZM67.644 19.392H70.452C72.792 19.392 74.092 20.692 74.092 23.032V48.2H67.748V23.188H63.536L61.612 17.624C67.28 12.892 71.076 7.172 72.376 1.4H79.084C77.42 9.148 73.468 14.972 67.644 19.392ZM155.004 36.656L147.88 11.592H154.172L161.66 36.656H155.004ZM122.036 36.656H115.276L122.712 11.592H129.056L122.036 36.656ZM141.848 42.22C141.848 45.704 139.976 47.888 135.92 47.888C133.476 47.888 129.68 47.576 127.08 47.056L125.676 41.596C127.912 42.064 131.448 42.376 133.112 42.324C134.464 42.272 135.4 41.336 135.4 40.088V1.4H141.848V42.22ZM208.772 29.844H179.08L178.56 25.58H208.772V29.844ZM205.132 2.804C207.628 2.804 209.032 4.26 209.032 6.756V14.14C209.032 16.636 207.628 18.04 205.132 18.04H175.492C172.996 18.04 171.592 16.636 171.592 14.14V6.756C171.592 4.26 172.996 2.804 175.492 2.804H205.132ZM204.612 41.544C207.368 42.636 210.488 43.26 213.868 43.312L212.308 48.408C200.556 46.64 193.952 42.584 189.896 35.824H186.308V38.58C186.308 39.932 186.152 41.232 185.736 42.48L193.12 41.336V46.536L178.508 48.512L177.624 43.728L179.756 43.416C180.12 42.22 180.276 41.076 180.276 39.932V35.824H175.128C174.764 40.4 173.828 44.456 172.32 48.2H165.872C168.108 43 169.304 37.384 169.304 30.936V23.708C169.304 20.9 170.656 19.548 173.464 19.548H212.152V24.02H176.116C175.596 24.02 175.336 24.28 175.336 24.8V31.04V31.456H211.528V35.824H196.292C197.176 36.864 198.164 37.8 199.308 38.632L210.228 36.084V40.244L204.612 41.544ZM203 12.216H177.624V13.1C177.624 13.62 177.832 13.88 178.404 13.88H202.22C202.792 13.88 203 13.62 203 13.1V12.216ZM203 8.628V7.744C203 7.172 202.792 6.964 202.22 6.964H178.404C177.832 6.964 177.624 7.172 177.624 7.744V8.628H203Z" fill="white"/>
<path fill-rule="evenodd" clip-rule="evenodd" d="M0 0H48V14C48 15.1046 47.1046 16 46 16H0V0ZM20 20H44V34C44 35.1046 43.1046 36 42 36H20V20ZM0 20V56H14C15.1046 56 16 55.1046 16 54V20H0Z" fill="white"/>
</svg>
