<svg width="1024" height="1024" viewBox="0 0 1024 1024" fill="none" xmlns="http://www.w3.org/2000/svg">
<path d="M783.059 0H240.941C107.873 0 0 107.873 0 240.941V783.059C0 916.127 107.873 1024 240.941 1024H783.059C916.127 1024 1024 916.127 1024 783.059V240.941C1024 107.873 916.127 0 783.059 0Z" fill="black"/>
<path d="M737.882 120.473H286.118C194.633 120.473 120.471 194.635 120.471 286.12V737.884C120.471 829.369 194.633 903.531 286.118 903.531H737.882C829.367 903.531 903.53 829.369 903.53 737.884V286.12C903.53 194.635 829.367 120.473 737.882 120.473Z" stroke="white" stroke-opacity="0.18" stroke-width="43.5894"/>
<path d="M661.555 474.819C681.571 491.015 683.391 516.561 674.02 534.165C664.374 552.284 649.019 562.47 628.345 562.623C580.897 562.976 533.445 562.734 485.994 562.732C473.608 562.732 461.223 562.727 448.837 562.728C448.502 562.728 448.168 562.781 447.558 562.832C447.558 563.735 447.559 564.58 447.558 565.426C447.526 610.783 447.226 656.142 447.565 701.496C447.759 727.459 429.291 749.532 405.131 756.046C373.602 764.547 341.563 746.567 332.733 715.353C331.425 710.731 330.976 705.73 330.962 700.901C330.814 650.05 330.829 599.198 330.814 548.345C330.802 506.565 330.799 464.784 330.814 423.003C330.823 398.808 336.818 376.101 347.368 354.392C356.378 335.853 368.728 319.924 383.984 306.272C406.915 285.752 433.518 272.397 463.851 266.731C478.083 264.073 492.492 264.402 506.877 264.405C563.66 264.417 620.444 264.447 677.228 264.421C688.369 264.415 698.952 266.712 708.373 272.67C726.197 283.941 734.961 299.963 733.458 321.431C731.848 344.419 712.529 364.011 690.391 368.014C685.631 368.875 680.703 369.107 675.852 369.111C621.075 369.159 566.297 369.19 511.52 369.009C500.115 368.972 489.218 370.688 479.428 376.587C461.077 387.645 449.813 403.758 448.131 425.323C447.152 437.877 447.953 450.569 447.953 463.446C450.051 463.446 452.62 463.444 455.188 463.446C501.766 463.47 548.345 463.484 594.923 463.527C607.133 463.538 619.345 463.544 631.553 463.731C642.746 463.902 652.618 467.882 661.555 474.819Z" fill="#FEFEFE"/>
</svg>
